<svg id="Capa_1" data-name="Capa 1" xmlns="http://www.w3.org/2000/svg" viewBox="0 0 206.21 49.8"><defs><style>.cls-1{fill:#fff;}</style></defs><path class="cls-1" d="M207.13,210.48c-.29-12.95,3.76-23.49,14.17-23.49,4.85,0,9.41,2.32,10.76,4.85a6.54,6.54,0,0,0-7.3,7.17,6.67,6.67,0,0,0,6.75,6.16c4.64,0,7.34-3.25,7.26-7.17-.26-6.83-8.4-12.36-18.14-12.36-13.88,0-25.94,9-25.94,24.93,0,15.1,8.77,24.8,23.66,24.8,11.81,0,17.76-6.37,20.67-13.54h-1.56c-3.38,7.38-8.31,10.67-15.23,10.67-9.19,0-14.8-9.87-15.1-22m52.13-19c0-3.62-2.39-6-6.09-6a5.83,5.83,0,0,0-6.09,6.23c0,3.76,2.47,5.88,6.09,5.88s6.09-2.39,6.09-6.16m-16.14,42.69h20v-.82c-4-.07-4.58-.76-4.58-2.4V202.33l-15.46.82V204c3.9.07,4.92,1.3,4.92,3.36V231c0,1.64-1,2.33-4.92,2.4Zm33-17.81c.27-8.05,1.71-13,5.25-13,3.76,0,5.32,5.12,4.44,13Zm0,2.32v-.95h20.19c.48-9.42-4.77-15.76-14.53-15.76-9.27,0-16.71,6.14-16.71,16.85,0,10.37,6.82,15.9,16.78,15.9,6.69,0,11.12-2.94,14.33-7.92h0c.12-.18.27-.47.27-.47h-1c-2.53,3.48-5.26,5.46-9.28,5.46-6.55,0-10-4.36-10-13Zm53.59-10.44c0-3.55-2.32-6.15-6.56-6.15-3.77,0-7.46,2.46-9.58,6.63v-6.43l-15.05.82V204c3.9.07,4.65,1.3,4.65,3.36V231c0,1.64-.75,2.33-4.65,2.4v.82H320v-.82c-5.27-.21-6.29-.76-6.29-2.4V210.13c1.36-2.33,3.69-4.1,5.33-4.24a11.28,11.28,0,0,0-.54,3.08c0,2.73,2.12,5.33,5.81,5.33,3.15,0,5.4-2.46,5.4-6M343,232.84l20.38-29.28-.13-1.09H334.15l-.76,12.38,1.17.14c5.06-9.24,7.93-11.15,11.9-11.15h5.81L332,233.11l.13,1.1H362l.75-13.07-1.16-.13c-5.41,9.23-7.67,11.83-12.11,11.83Zm46.7-14.57c0,9.23-1,15.12-5.54,15.12s-6.15-5.89-6.15-15.12.95-15,5.54-15,6.15,5.75,6.15,15m11.15-.14c0-10.19-6.22-16.21-17-16.21-10.47,0-17,6.3-17,16.49s6.15,16.35,17,16.35c10.4,0,17-6.37,17-16.63" transform="translate(-194.69 -185.57)"/></svg>