<?xml version="1.0" encoding="UTF-8"?><svg id="Capa_2" xmlns="http://www.w3.org/2000/svg" viewBox="0 0 295.59 286.22"><defs><style>.cls-1{fill:#1d1d1b;}</style></defs><path class="cls-1" d="m252.7,203.84c-15.03,32.64-42.36,56.1-77.51,55.77-.92.15-1.85.27-2.79.36-13.08,1.2-25.88-3.67-37.38-13.15-11.04-7.75-19.62-18.52-24.56-30.96-10.49-19.2-17.87-43.41-20.32-70.12-3.02-32.8,1.96-63.26,12.46-86.17,3.07-8.02,7.61-15.28,13.3-21.48,8.23-9.79,18.02-16.41,28.91-18.82,8.97-3.05,18.72-4.37,28.8-3.53,18.92,1.58,39.45,13.42,50.98,26.46-19.41-2.42-37.81,11.62-39.45,31.2-1.72,20.54,11.54,38.59,32.08,40.31s38.59-13.54,40.31-34.08c.41-4.94-.76-17.46-6.74-28.66-5.98-11.2-26.68-35.57-81.86-41.68C95.36,3.13,30.7,57.8,24.55,131.4c-6.16,73.6,40.65,135.88,121.12,142.41,55.96,4.54,93.61-21.81,114.61-69.34l-7.57-.63Z"/></svg>